<svg width="40" height="40" viewBox="0 0 40 40" fill="none" xmlns="http://www.w3.org/2000/svg">
<g clip-path="url(#clip0_570_4263)">
<g clip-path="url(#clip1_570_4263)">
<mask id="mask0_570_4263" style="mask-type:luminance" maskUnits="userSpaceOnUse" x="0" y="0" width="40" height="40">
<path d="M39.5 0.5V39.5H0.5V0.5H39.5Z" fill="white" stroke="white"/>
</mask>
<g mask="url(#mask0_570_4263)">
<path d="M18.333 26.917V31.417C18.333 35.167 16.833 36.667 13.083 36.667H8.58301C4.83301 36.667 3.33301 35.167 3.33301 31.417V26.917C3.33301 23.167 4.83301 21.667 8.58301 21.667H13.083C16.833 21.667 18.333 23.167 18.333 26.917Z" stroke="#CD5343" stroke-width="1.5" stroke-linecap="round" stroke-linejoin="round"/>
<path opacity="0.4" d="M36.6667 25C36.6667 31.45 31.45 36.6667 25 36.6667L26.75 33.75" stroke="#CD5343" stroke-width="1.5" stroke-linecap="round" stroke-linejoin="round"/>
<path opacity="0.4" d="M3.33301 15.0002C3.33301 8.55016 8.54967 3.3335 14.9997 3.3335L13.2497 6.25016" stroke="#CD5343" stroke-width="1.5" stroke-linecap="round" stroke-linejoin="round"/>
<path d="M29.166 18.3335C33.3082 18.3335 36.666 14.9756 36.666 10.8335C36.666 6.69136 33.3082 3.3335 29.166 3.3335C25.0238 3.3335 21.666 6.69136 21.666 10.8335C21.666 14.9756 25.0238 18.3335 29.166 18.3335Z" stroke="#CD5343" stroke-width="1.5" stroke-linecap="round" stroke-linejoin="round"/>
</g>
</g>
</g>
<defs>
<clipPath id="clip0_570_4263">
<rect width="40" height="40" fill="white"/>
</clipPath>
<clipPath id="clip1_570_4263">
<rect width="40" height="40" fill="white"/>
</clipPath>
</defs>
</svg>
