<svg width="416" height="416" viewBox="0 0 416 416" fill="none" xmlns="http://www.w3.org/2000/svg">
<g clip-path="url(#clip0_162_2726)">
<path d="M408.5 212.5H6C16.6667 284.167 74 424 218 410C362 396 405 272.5 408.5 212.5Z" fill="#1679B6"/>
<path d="M7.99997 213L410 213C399.347 138.617 342.084 -6.51592 198.263 8.01466C54.4422 22.5453 11.4956 150.726 7.99997 213Z" fill="#D6EFFF"/>
<path d="M189.5 192.5V205.5H183C172.833 211.333 152.2 223.1 151 223.5C149.8 223.9 144.167 244 141.5 254H100L93.5 272.5L79 279.5L81.5 267.5V256L61 252.5V192.5H189.5Z" fill="#B6DDF6"/>
<path d="M141.5 103.5V190.5H187V204C201.5 204.167 231.3 204.4 234.5 204C238.5 203.5 275 209.5 277 210C278.6 210.4 294 228.197 301.5 237.046L311 234.5V188H322.5L339 180L344 172L326 170.5L308.5 164.5V103.5H141.5Z" fill="#6EBCED"/>
<path d="M155 218.5L176.5 208C181.5 207.333 192 206 194 206H264.5L287 217L304.5 249.5L296.5 281.5L278.5 305.5L285 338L263 328L258.5 314.5L254.5 308H187.5L162 299.5L142 271.5V241.5C142 240.7 150.667 225.833 155 218.5Z" fill="#D6EFFF"/>
<path d="M208 0C322.875 0 416 93.1248 416 208C416 322.875 322.875 416 208 416C93.1248 416 0 322.875 0 208C0 93.1248 93.1248 0 208 0ZM315.346 223V236.501C315.345 238.092 314.713 239.618 313.588 240.743C312.507 241.824 311.057 242.446 309.534 242.494C310.609 246.887 311.18 251.478 311.18 256.202C311.18 276.193 300.968 293.795 285.504 304.079C283.844 307.806 283.685 313.039 284.771 318.992C285.94 325.394 288.344 331.491 290.146 335.024C291.223 337.136 290.956 339.683 289.465 341.525C287.973 343.368 285.536 344.159 283.247 343.545C262.731 338.045 254.678 323.943 252.38 313.655H192.611C162.414 313.655 137.663 290.341 135.355 260.729L104.575 260.398C103.286 268.873 96.9511 281.613 79.0146 286.318C76.7185 286.921 74.2824 286.112 72.8018 284.257C71.3212 282.401 71.0739 279.846 72.1709 277.741C73.3794 275.422 74.9828 271.529 75.9453 267.304C76.5151 264.802 76.8013 262.434 76.7656 260.333L60.9961 260.322C57.6843 260.32 55.0003 257.634 55 254.322V223H15.5742C23.229 322.581 106.457 401 208 401C309.543 401 392.771 322.581 400.426 223H315.346ZM192.611 210.75C167.522 210.75 147.18 231.097 147.18 256.202C147.18 281.307 167.522 301.655 192.611 301.655H257.63L257.934 301.663C261.057 301.819 263.561 304.366 263.628 307.527C263.716 311.654 265.835 320.02 274.103 326.209C273.669 324.564 273.281 322.869 272.967 321.146C271.591 313.611 271.346 304.358 275.742 296.855L275.955 296.52C276.477 295.751 277.162 295.124 277.949 294.676C290.717 286.618 299.18 272.397 299.18 256.202C299.179 231.097 278.837 210.75 253.748 210.75H192.611ZM67 248.326L81.8613 248.337C84.4598 248.339 86.7623 250.013 87.5645 252.484C89.2191 257.582 88.9526 263.133 88.0664 267.934C91.7676 263.962 92.7732 259.564 92.834 257.295V254.337C92.834 252.734 93.4752 251.198 94.6143 250.071C95.7534 248.944 97.2961 248.32 98.8984 248.337L135.661 248.732C138.87 224.008 157.793 204.216 182.083 199.714V197.266H67V248.326ZM147.519 185.266H188.083C191.397 185.266 194.083 187.952 194.083 191.266V198.75H253.748C274.899 198.75 293.377 210.188 303.344 227.216L303.345 188.354L303.355 188.011C303.454 186.297 304.282 184.7 305.642 183.634C307.092 182.496 308.986 182.089 310.775 182.528C314.847 183.527 323.752 183.647 331.996 177.405C330.498 177.395 328.972 177.338 327.439 177.217C319.944 176.626 311.162 174.486 305.074 168.316L304.872 168.102C303.891 167.004 303.346 165.581 303.346 164.103L303.345 109.958L147.519 109.957V185.266ZM208 15C101.409 15 15 101.409 15 208C15 209.002 15.0082 210.002 15.0234 211H55V191.266C55 187.952 57.6864 185.266 61 185.266H135.518L135.519 103.956L135.526 103.647C135.687 100.477 138.309 97.957 141.519 97.957L309.346 97.9561C310.937 97.9562 312.463 98.5888 313.588 99.7139C314.713 100.839 315.346 102.366 315.346 103.957L315.344 161.341C318.489 163.553 323.031 164.832 328.383 165.254C334.645 165.748 340.958 164.981 344.878 164.146C347.196 163.651 349.589 164.569 350.982 166.486C352.376 168.403 352.51 170.961 351.325 173.014C341.171 190.601 325.963 195.049 315.345 195.02V211H400.977C400.992 210.002 401 209.002 401 208C401 101.409 314.591 15 208 15Z" fill="#18223A"/>
</g>
<defs>
<clipPath id="clip0_162_2726">
<rect width="416" height="416" fill="white"/>
</clipPath>
</defs>
</svg>
