<svg width="416" height="416" viewBox="0 0 416 416" fill="none" xmlns="http://www.w3.org/2000/svg">
<g clip-path="url(#clip0_162_2723)">
<path d="M408.5 212.5H6C16.6667 284.167 74 424 218 410C362 396 405 272.5 408.5 212.5Z" fill="#D67A70"/>
<path d="M7.99997 212L410 212C399.347 137.617 342.084 -7.51592 198.263 7.01466C54.4422 21.5453 11.4956 149.726 7.99997 212Z" fill="#F1D3D0"/>
<path d="M185.5 309.5L135 165.5C126.5 168.5 109.1 174.8 107.5 176C105.9 177.2 86.8333 195.167 77.5 204L105 270.5L142 309.5L179.5 313L185.5 309.5Z" fill="#E4A79F"/>
<path d="M186 308.5L134.5 164L153 157.5H198.5V201L206.5 227.5L220.5 241V268L213 288L186 308.5Z" fill="#9F3A2F"/>
<path d="M275.5 102L240.5 251.5L219.5 242.5L205.5 224.5L194 161.5L207.5 105L240.5 96.5L275.5 102Z" fill="#CD5343"/>
<path d="M241 252L276.5 101.5L302 111L335 134.5L318.5 196L295 233.5L276.5 249.5L241 252Z" fill="#E4A79F"/>
<path d="M208 0C322.875 0 416 93.1248 416 208C416 322.875 322.875 416 208 416C93.1248 416 0 322.875 0 208C0 93.1248 93.1248 0 208 0ZM307.451 224C300.101 235.093 291.412 244.891 281.244 251.739C280.487 252.249 279.622 252.579 278.718 252.705L240.944 257.951C240.217 258.052 239.476 258.02 238.761 257.854L238.086 257.696C237.371 257.53 236.691 257.233 236.083 256.822L227.709 251.162C227.389 264.191 225.301 276.931 220.422 288.048C220.055 288.884 219.502 289.625 218.805 290.215L189.697 314.855C189.137 315.33 188.494 315.698 187.801 315.94L187.146 316.17C186.452 316.412 185.719 316.525 184.985 316.503L146.866 315.364C145.953 315.337 145.058 315.102 144.25 314.677C124.201 304.121 108.083 283.001 96.1592 261.806C89.1032 249.263 83.3418 236.376 78.9834 225H15.7393C24.3467 323.629 107.137 401 208 401C309.203 401 392.213 323.105 400.346 224H307.451ZM130.53 170.018C105.106 180.062 89.8788 195.395 84.2217 203.276C88.2185 216.741 95.8518 236.784 106.618 255.922C117.928 276.025 132.217 294.264 148.652 303.412L177.465 304.272L162.017 260.082C155.079 264.067 150.304 270.362 147.742 275.158C146.181 278.08 142.546 279.184 139.623 277.623C136.7 276.062 135.597 272.426 137.158 269.503C140.523 263.204 146.992 254.552 157.005 249.139C157.336 248.96 157.669 248.784 158.007 248.613L130.53 170.018ZM190.365 161.933C179.261 160.283 161.951 160.112 141.87 166.094L169.386 244.801C177.405 243.373 186.674 244.181 197.104 248.473C200.169 249.733 201.631 253.24 200.37 256.305C199.109 259.369 195.602 260.831 192.538 259.57C185.119 256.518 178.79 255.745 173.419 256.339L188.681 299.993L209.962 281.979C214.517 270.904 216.121 257.417 215.685 243.035L204.486 235.467C203.73 234.955 203.1 234.278 202.645 233.486C198.233 225.812 195.191 217.096 193.197 207.876C192.221 208.596 191.176 209.27 190.06 209.872C183.844 213.226 175.817 214.186 166.845 209.862C163.86 208.424 162.605 204.837 164.044 201.852C165.483 198.867 169.069 197.614 172.054 199.052C177.442 201.648 181.413 200.902 184.36 199.312C187.401 197.671 189.677 194.913 190.855 192.788C189.862 182.925 189.792 172.832 190.3 163.09C190.32 162.704 190.343 162.318 190.365 161.933ZM258.898 198.072C266.452 198.197 273.347 195.509 277.985 192.88C280.868 191.246 284.529 192.258 286.163 195.141C287.797 198.023 286.784 201.685 283.901 203.319C277.75 206.806 267.864 210.741 256.572 209.982C256.428 209.973 256.285 209.958 256.141 209.947L248.035 244.851L275.654 241.016C291.005 230.147 303.243 210.473 312.316 189.267C320.954 169.078 326.38 148.328 328.9 134.511C322.496 127.364 305.993 113.981 280.121 106.683L258.898 198.072ZM268.44 103.93C241.589 98.8157 220.522 103.622 211.526 107.254C207.7 120.768 203.426 141.786 202.283 163.715C201.083 186.749 203.399 209.803 212.39 226.324L236.27 242.465L244.441 207.275C236.7 204.251 229.015 198.551 222.068 189.104C220.106 186.434 220.678 182.679 223.348 180.716C226.017 178.753 229.772 179.326 231.735 181.996C236.836 188.933 242.116 193.074 247.196 195.412L268.44 103.93ZM127.924 214.411C129.408 211.449 133.013 210.25 135.976 211.734C138.938 213.219 140.137 216.825 138.652 219.787C136.718 223.647 132.775 228.778 126.881 231.959C120.665 235.313 112.638 236.272 103.666 231.948C100.681 230.51 99.4267 226.924 100.865 223.938C102.304 220.954 105.89 219.7 108.875 221.139C114.263 223.735 118.235 222.989 121.182 221.398C124.45 219.635 126.836 216.583 127.924 214.411ZM208 15C101.409 15 15 101.409 15 208C15 209.672 15.0222 211.338 15.0645 213H74.6992C73.6109 209.701 72.6783 206.643 71.9092 203.891C71.4927 202.4 71.6702 200.81 72.3945 199.452L72.5459 199.185L72.832 198.718C79.0393 188.753 98.4303 168.418 131.456 156.872L132.111 156.643C156.15 148.239 177.367 148.001 191.331 149.95C193.355 130.469 197.322 112.743 200.796 101.186C201.271 99.6054 202.376 98.2909 203.851 97.5508C214.053 92.4315 241.638 85.279 276.258 93.3184L276.934 93.4756C311.553 101.515 333.164 120.091 340.066 129.183C341.064 130.497 341.476 132.165 341.206 133.793C338.794 148.332 332.99 171.454 323.349 193.987C320.762 200.033 317.866 206.105 314.65 212H400.959C400.986 210.67 401 209.337 401 208C401 101.409 314.591 15 208 15ZM275.824 154.97C279.523 152.743 285.599 150.517 292.281 150.983C299.327 151.475 306.623 154.959 311.89 163.412C313.642 166.225 312.782 169.925 309.97 171.678C307.157 173.43 303.457 172.57 301.704 169.758C298.541 164.682 294.787 163.188 291.446 162.955C287.742 162.697 284.094 163.998 282.013 165.251C279.174 166.96 275.486 166.043 273.777 163.204C272.069 160.365 272.985 156.678 275.824 154.97ZM215.775 141.025C219.474 138.799 225.55 136.573 232.232 137.039C239.279 137.531 246.574 141.015 251.841 149.468C253.593 152.28 252.733 155.981 249.921 157.733C247.109 159.485 243.408 158.626 241.655 155.813C238.492 150.737 234.738 149.244 231.397 149.011C227.693 148.752 224.045 150.054 221.964 151.307C219.125 153.016 215.437 152.099 213.729 149.26C212.02 146.421 212.937 142.734 215.775 141.025Z" fill="#18223A"/>
<path d="M401 208C401 101.409 314.591 15 208 15C101.409 15 15 101.409 15 208C15 314.591 101.409 401 208 401V416C93.1248 416 0 322.875 0 208C0 93.1248 93.1248 0 208 0C322.875 0 416 93.1248 416 208C416 322.875 322.875 416 208 416V401C314.591 401 401 314.591 401 208Z" fill="#18223A"/>
</g>
<defs>
<clipPath id="clip0_162_2723">
<rect width="416" height="416" fill="white"/>
</clipPath>
</defs>
</svg>
