<svg width="416" height="416" viewBox="0 0 416 416" fill="none" xmlns="http://www.w3.org/2000/svg">
<g clip-path="url(#clip0_162_2725)">
<path d="M408.5 212.5H6C16.6667 284.167 74 424 218 410C362 396 405 272.5 408.5 212.5Z" fill="#F6BB3A"/>
<path d="M7.99997 213L410 213C399.347 138.617 342.084 -6.51592 198.263 8.01466C54.4422 22.5453 11.4956 150.726 7.99997 213Z" fill="#FBE6B3"/>
<path d="M207 229L70.5 161.5L207 109L344.5 161.5L207 229Z" fill="#F9D37C"/>
<path d="M222.5 159.5H196.5L203.5 143L211.5 141.5L222.5 159.5Z" fill="#755511"/>
<path d="M310 286V272L333.5 271V286H310Z" fill="#F9D37C"/>
<path d="M121 259.5L127 243.5C145.667 252.167 188.5 269.8 210.5 271C232.5 272.2 271.667 253.167 288.5 243.5L294 258C289.667 272.333 266.9 301 210.5 301C154.1 301 127.333 273.333 121 259.5Z" fill="#F9D37C"/>
<path d="M128.5 241.5L141.5 197.5L209 229L274.5 197.5L286.5 241.5C278.667 251.167 252.5 270.5 210.5 270.5C168.5 270.5 138.333 251.167 128.5 241.5Z" fill="#755511"/>
<path d="M401 208C401 101.409 314.591 15 208 15C101.409 15 15 101.409 15 208C15 314.591 101.409 401 208 401V416C93.1248 416 0 322.875 0 208C0 93.1248 93.1248 0 208 0C322.875 0 416 93.1248 416 208C416 322.875 322.875 416 208 416V401C314.591 401 401 314.591 401 208Z" fill="#18223A"/>
<path fill-rule="evenodd" clip-rule="evenodd" d="M205.934 103.367C207.185 102.908 208.55 102.879 209.815 103.281L210.066 103.367L349.066 154.367C351.311 155.191 352.853 157.268 352.99 159.655C353.127 162.042 351.834 164.283 349.698 165.358L311.811 184.437C312.796 185.569 313.75 186.741 314.662 187.96C318.406 192.96 321.442 198.621 323.62 205H404V217H326.537C327.168 221.09 327.5 225.419 327.5 230V262.5H334C337.314 262.5 340 265.186 340 268.5V287L340.005 288.702C340.035 292.756 340.234 297.316 341.491 301C342.177 303.01 343.045 304.328 343.994 305.132C344.839 305.848 346.144 306.5 348.5 306.5V318.5C343.607 318.5 339.473 317.027 336.24 314.29C333.112 311.641 331.26 308.177 330.134 304.875C328.857 301.132 328.346 297.054 328.14 293.5H328V318H316V293.5H314.86C314.654 297.054 314.143 301.132 312.866 304.875C311.74 308.177 309.888 311.641 306.76 314.29C303.527 317.027 299.393 318.5 294.5 318.5V306.5C296.856 306.5 298.161 305.848 299.006 305.132C299.955 304.328 300.823 303.01 301.509 301C302.766 297.316 302.965 292.756 302.995 288.702L303 287V268.5C303 265.186 305.686 262.5 309 262.5H315.5V230C315.5 225.302 315.105 220.98 314.371 217H287.618L300.711 258.755L300.349 260.339C296.341 277.845 271.267 306.349 208 306.498V306.5C207.917 306.5 207.833 306.499 207.75 306.499C207.667 306.499 207.583 306.5 207.5 306.5V306.498C144.233 306.349 119.159 277.845 115.151 260.339L114.789 258.755L127.881 217H9V205H131.644L133.468 199.183L66.3018 165.358C64.1663 164.283 62.8726 162.042 63.0098 159.655C63.1471 157.268 64.689 155.191 66.9336 154.367L205.934 103.367ZM127.256 259.102C130.883 270.08 150.259 294.429 207.75 294.499C265.241 294.429 284.617 270.08 288.244 259.102L285.718 251.047C270.559 262.431 242.636 277 208.5 277C173.434 277 144.922 261.626 130.07 250.124L127.256 259.102ZM315 281.5H328V274.5H315V281.5ZM133.939 237.784C145.397 247.816 173.382 265 208.5 265C242.463 265 269.754 248.927 281.876 238.796L271.238 204.87L210.698 235.358C209.001 236.213 206.999 236.213 205.302 235.358L144.329 204.652L133.939 237.784ZM84.0586 160.865L208 223.282L290.352 181.81C286.903 179.627 283.194 177.728 279.289 176.077C259.01 167.507 234.495 166.084 217.155 166.004L215.5 166H187C187 149.431 196.402 136 208 136C216.668 136 224.108 143.502 227.314 154.208C244.094 154.833 265.373 157.168 283.961 165.023C290.516 167.793 296.821 171.285 302.507 175.688L331.942 160.865L208 115.391L84.0586 160.865ZM282.1 199.4L283.855 205H310.765C309.183 201.355 307.255 198.088 305.057 195.152C303.704 193.346 302.235 191.649 300.662 190.052L282.1 199.4ZM208 148C207.192 148 205.232 148.452 202.981 151.668C202.497 152.36 202.035 153.14 201.608 154H214.392C213.965 153.14 213.503 152.36 213.019 151.668C210.768 148.452 208.808 148 208 148Z" fill="#18223A"/>
</g>
<defs>
<clipPath id="clip0_162_2725">
<rect width="416" height="416" fill="white"/>
</clipPath>
</defs>
</svg>
