<svg width="40" height="40" viewBox="0 0 40 40" fill="none" xmlns="http://www.w3.org/2000/svg">
<g clip-path="url(#clip0_570_4316)">
<g clip-path="url(#clip1_570_4316)">
<mask id="mask0_570_4316" style="mask-type:luminance" maskUnits="userSpaceOnUse" x="0" y="0" width="40" height="40">
<path d="M40 0H0V40H40V0Z" fill="white"/>
</mask>
<g mask="url(#mask0_570_4316)">
<path d="M36.6663 20.0002C36.6663 10.8002 29.1997 3.3335 19.9997 3.3335C10.7997 3.3335 3.33301 10.8002 3.33301 20.0002C3.33301 29.2002 10.7997 36.6668 19.9997 36.6668" stroke="#5A7BB1" stroke-width="1.5" stroke-linecap="round" stroke-linejoin="round"/>
<g opacity="0.4">
<path d="M13.3324 5H14.999C11.749 14.7333 11.749 25.2667 14.999 35H13.3324" stroke="#5A7BB1" stroke-width="1.5" stroke-linecap="round" stroke-linejoin="round"/>
<path d="M25 5C26.6167 9.86667 27.4333 14.9333 27.4333 20" stroke="#5A7BB1" stroke-width="1.5" stroke-linecap="round" stroke-linejoin="round"/>
<path d="M5 26.6667V25C9.86667 26.6167 14.9333 27.4333 20 27.4333" stroke="#5A7BB1" stroke-width="1.5" stroke-linecap="round" stroke-linejoin="round"/>
<path d="M5 14.9995C14.7333 11.7495 25.2667 11.7495 35 14.9995" stroke="#5A7BB1" stroke-width="1.5" stroke-linecap="round" stroke-linejoin="round"/>
</g>
<path d="M30.3333 35.6667C33.2788 35.6667 35.6667 33.2788 35.6667 30.3333C35.6667 27.3878 33.2788 25 30.3333 25C27.3878 25 25 27.3878 25 30.3333C25 33.2788 27.3878 35.6667 30.3333 35.6667Z" stroke="#5A7BB1" stroke-width="1.5" stroke-linecap="round" stroke-linejoin="round"/>
<path d="M36.6667 36.6667L35 35" stroke="#5A7BB1" stroke-width="1.5" stroke-linecap="round" stroke-linejoin="round"/>
</g>
</g>
</g>
<defs>
<clipPath id="clip0_570_4316">
<rect width="40" height="40" fill="white"/>
</clipPath>
<clipPath id="clip1_570_4316">
<rect width="40" height="40" fill="white"/>
</clipPath>
</defs>
</svg>
