<svg width="132" height="132" viewBox="0 0 132 132" fill="none" xmlns="http://www.w3.org/2000/svg">
<path d="M132 66C132 102.451 102.451 132 66 132C29.5492 132 0 102.451 0 66C0 29.5492 29.5492 0 66 0C102.451 0 132 29.5492 132 66Z" fill="#69D5DB"/>
<path d="M70.881 60.2537C69.0081 60.7137 66.7582 61.2799 65.2411 61.7068C64.0153 62.0518 62.7008 62.1297 61.0498 62.0849C59.4026 62.0401 57.3937 61.8716 54.7896 61.7151C53.4752 61.6361 52.5117 61.4949 51.8458 61.3311C51.5135 61.2493 51.2493 61.1602 51.0504 61.0678C50.8737 60.9856 50.7219 60.8881 50.6299 60.7684C57.2862 61.0873 65.1294 61.2399 67.2268 60.3488C68.0997 59.978 70.3279 59.7739 73.2474 59.6791C72.6419 59.8245 71.808 60.026 70.881 60.2537Z" fill="white"/>
<path d="M99.1997 58.9189C99.246 58.9322 99.2822 58.9428 99.3066 58.95C99.3186 58.9535 99.3282 58.9563 99.3345 58.9582C99.3375 58.9591 99.3402 58.96 99.3418 58.9605L99.3436 58.961H99.3446L99.3756 58.9706L99.4031 58.9879L99.4035 58.9884L99.4054 58.9893C99.4067 58.9901 99.4088 58.9918 99.4113 58.9934C99.4167 58.9969 99.4252 59.0023 99.4355 59.009C99.4564 59.0223 99.4871 59.0422 99.5256 59.067C99.6028 59.1168 99.713 59.1877 99.8424 59.2723C100.101 59.4413 100.44 59.6658 100.758 59.8848C101.074 60.1021 101.378 60.3203 101.562 60.4754C101.608 60.5143 101.651 60.5526 101.685 60.5878C101.713 60.6162 101.759 60.6658 101.785 60.7254C101.797 60.7537 101.825 60.8304 101.792 60.9197C101.753 61.0248 101.664 61.0646 101.613 61.0769C101.566 61.0884 101.523 61.0853 101.498 61.0824C101.469 61.0791 101.44 61.073 101.413 61.066C100.466 60.8188 99.7762 60.8312 98.6525 60.874C97.525 60.9169 95.9841 60.9885 93.3632 60.8452C92.1608 60.7794 91.2034 60.7942 90.0514 60.7826C88.901 60.7709 87.5699 60.7328 85.6384 60.5595C84.0461 60.4166 82.1702 60.2021 80.6943 60.0237C79.9563 59.9346 79.3173 59.8545 78.8631 59.7966C78.5215 59.753 78.3947 59.6772 78.1381 59.6114C88.0434 59.617 100.87 60.2902 100.906 60.2921C100.896 60.2841 100.009 59.5625 99.0095 58.8663C99.0847 58.8873 99.1487 58.9043 99.1997 58.9189Z" fill="white"/>
<path d="M53.2663 63.4907C54.0261 63.8417 54.7279 64.2056 55.678 64.6427C55.7942 64.6961 55.8958 64.7531 55.9692 64.8168C56.0337 64.8729 56.1383 64.9902 56.1054 65.1542C56.0754 65.3034 55.9499 65.3779 55.8823 65.4111C55.8007 65.451 55.6992 65.4807 55.5916 65.5039C55.1636 65.5961 54.4083 65.6375 53.5314 65.6574C51.7439 65.6982 49.4203 65.6517 47.902 65.7114C42.1523 65.9373 38.9007 65.4676 33.1994 65.1354C31.2259 65.0204 28.7459 64.8421 26.6567 64.6847L54.6445 64.7546C54.6396 64.744 54.393 64.2143 53.2663 63.4907Z" fill="white"/>
<path d="M14.5413 38.9783C16.2077 38.4436 19.4753 38.0234 22.3908 39.8254C27.4377 42.944 32.1743 44.5606 40.0034 42.0744C45.5213 40.3223 46.7426 42.8751 49.0575 44.3229C50.7035 45.3514 52.5429 45.8644 54.638 46.5811C56.4558 47.2031 58.4671 47.9783 60.7098 49.3786C62.7355 50.6436 63.8735 51.3566 66.8169 50.6046C70.656 49.624 74.643 50.2563 77.3977 52.3055C80.6902 54.7547 82.5228 54.3652 84.8377 54.1646C87.1526 53.964 87.9886 53.6958 90.1562 53.9877C94.0185 54.5073 92.2276 58.0383 96.5585 57.5884C97.6318 57.6227 100.874 60.2648 100.907 60.2913C100.847 60.2882 71.0496 58.7247 67.2278 60.348C64.3813 61.5574 50.9512 60.8455 44.2683 60.4024C40.0516 59.1356 37.463 57.7831 35.8355 56.5457C33.655 54.8887 33.1985 53.4391 32.8683 52.684C31.8735 50.4114 31.9979 48.489 24.9168 47.807C17.2281 47.0667 9.88258 47.885 2.53516 47.8244C3.33181 45.0375 4.30673 42.3259 5.44743 39.7029C8.37024 40.3487 11.8942 39.8276 14.5413 38.9783Z" fill="#677187"/>
<path d="M2.53478 47.825C9.88233 47.8854 17.228 47.0664 24.9169 47.8067C31.9982 48.4887 31.8735 50.411 32.8684 52.6837C33.1986 53.4387 33.6548 54.8882 35.8356 56.5454C37.8332 58.0642 41.2787 59.7568 47.406 61.2509C53.7327 62.7934 54.6328 64.7324 54.6422 64.7528L0.015625 64.6162C0.135154 58.8034 1.00547 53.1753 2.53478 47.825Z" fill="#4A5368"/>
<path d="M26.9977 16.4108C31.1197 16.2195 36.9059 17.0444 39.3859 18.1908L43.4885 20.1697C46.4248 21.5517 49.6993 22.7752 52.911 21.7856C53.953 21.6619 54.5572 21.9095 55.4567 22.3862C56.3278 22.7671 57.3214 22.6633 58.2062 22.3643C60.5865 21.3666 62.861 20.4708 65.5443 20.6597C67.9813 20.8318 70.0663 21.7953 72.1702 22.879C72.4861 23.0244 72.8029 23.1693 73.1269 23.2954C75.2859 24.1323 75.7362 23.5623 76.7825 21.7156C77.8385 20.1416 80.1943 18.9886 81.8354 20.3937C84.5423 22.7855 87.1221 25.4318 89.7974 27.9571C90.8307 28.9323 91.6512 29.9346 92.3019 30.9009C94.4908 34.1487 94.7689 36.9908 94.7722 37.0249L94.774 37.0258C95.6963 39.7545 96.6422 42.1328 99.2908 44.1243C101.939 46.1149 102.054 48.4055 104.102 50.1244C96.9508 52.07 83.1154 48.5472 75.8317 50.795C75.5793 50.8729 75.3226 50.946 75.0628 51.0153C72.6111 50.0398 69.6731 49.876 66.8164 50.6057C63.8731 51.3577 62.735 50.6447 60.7094 49.3797C58.4667 47.9794 56.4555 47.2038 54.6376 46.5818C52.5425 45.8651 50.7031 45.3521 49.0571 44.3236C46.7422 42.8757 45.521 40.3229 40.003 42.0751C32.1739 44.5613 27.4373 42.9447 22.3904 39.8261C19.4748 38.024 16.2073 38.4448 14.5409 38.9795C11.8938 39.8288 8.36981 40.3495 5.44702 39.7036C9.20856 31.0539 14.7686 23.367 21.6558 17.1157C23.2646 16.7656 25.0603 16.5006 26.9977 16.4108Z" fill="#80869B"/>
<path d="M103.282 49.2975C104.072 49.5288 105.421 49.9836 105.085 50.3191C104.62 50.7849 101.837 51.0189 101.809 51.0213C101.826 51.0255 102.746 51.2458 101.107 51.2553C99.3605 51.2654 98.5319 51.2553 96.4257 51.0213C95.9305 50.9662 95.0109 50.7804 94.237 50.614C97.9872 50.8147 101.491 50.8345 104.102 50.1239C103.789 49.8609 103.521 49.5842 103.282 49.2975Z" fill="white"/>
<path d="M76.4653 50.6181C78.7473 50.0418 81.5797 49.9519 84.6107 50.0485C84.1571 50.0937 83.8719 50.1479 83.6978 50.1578C83.3946 50.175 81.3002 50.6168 79.7428 50.6944C78.6771 50.7475 77.1647 50.664 76.4653 50.6181Z" fill="white"/>
<path d="M66.0474 0.00564649C94.5905 0.00999539 118.659 17.9987 127.979 43.321C128.031 43.321 119.789 43.2083 119.789 43.2083C119.789 43.2083 119.665 42.4038 116.464 41.8585C113.451 41.3342 113.086 40.6809 110.925 38.6545C110.062 37.8448 108.153 37.2178 107.068 36.7118C103.375 34.9884 98.8647 34.3657 94.6217 36.283C94.3983 35.2265 93.8014 33.1607 92.2767 30.8982C91.6259 29.9319 90.8084 28.9296 89.775 27.9544C87.0997 25.4292 84.517 22.7828 81.8101 20.391C80.1691 18.9858 77.8134 20.1385 76.7572 21.7125C75.711 23.5592 75.2607 24.1292 73.1017 23.2923C72.7777 23.1661 72.4609 23.0213 72.145 22.8759C70.041 21.7921 67.9561 20.8291 65.5191 20.657C62.8358 20.4681 60.5614 21.3617 58.1812 22.3593C57.2963 22.6583 56.3023 22.7622 55.4312 22.3813C54.5317 21.9046 53.9243 21.6579 52.8823 21.7816C49.6706 22.7712 46.4019 21.5472 43.4657 20.1652C43.4657 20.1652 41.8406 19.3346 39.3606 18.1882C36.8807 17.0417 30.4479 16.2054 26.9724 16.4077C23.4969 16.61 21.719 17.1238 21.6428 17.1238C21.5667 17.1238 38.4267 0.00143812 66.0474 0.00564649Z" fill="#DCE2E8"/>
<path d="M94.6475 36.2855C98.8905 34.368 103.401 34.9903 107.093 36.7138C108.178 37.2197 110.087 37.8464 110.951 38.6561C113.112 40.6825 113.477 41.3357 116.49 41.86C119.857 42.4466 119.83 43.2694 119.83 43.2766C112.61 43.2354 109.464 44.8303 99.6273 44.3906C99.5197 44.3015 99.4083 44.212 99.2913 44.1241C96.6427 42.1326 95.6968 39.7542 94.7745 37.0255L94.7727 37.0246C94.7722 37.019 94.7456 36.7497 94.6475 36.2855Z" fill="#A5AAB6"/>
<path d="M120.058 43.2166C120.294 43.473 119.832 43.719 119.681 43.7651C119.583 43.7948 119.467 43.818 119.341 43.8369C118.842 43.912 118.081 43.9332 117.388 43.9356C115.139 43.9436 113.304 44.4053 110.676 44.4531C109.669 44.4714 108.894 44.4647 108.096 44.4421C107.52 44.4258 106.566 44.4663 105.982 44.3923C107.615 44.3111 109.041 44.1713 110.388 44.0184C113.352 43.6942 115.839 43.2942 119.241 43.2769C119.434 43.2756 119.63 43.2753 119.83 43.2765C119.83 43.2753 119.829 43.2529 119.816 43.2134C119.83 43.2136 119.915 43.2146 120.058 43.2166Z" fill="#FDF1F1"/>
<path d="M37.7812 99.1885C37.8462 99.1886 37.8985 99.2147 37.9375 99.2666C37.9897 99.3057 38.0156 99.3586 38.0156 99.4238V101.322C38.0156 101.388 37.9897 101.447 37.9375 101.499C37.8985 101.538 37.8462 101.558 37.7812 101.558H33.6895C33.6244 101.558 33.5918 101.59 33.5918 101.655V104.748C33.5918 104.813 33.6244 104.846 33.6895 104.846H36.0391C36.1041 104.846 36.1563 104.872 36.1953 104.924C36.2475 104.963 36.2734 105.016 36.2734 105.081V106.979C36.2734 107.045 36.2474 107.103 36.1953 107.155C36.1562 107.194 36.1041 107.214 36.0391 107.214H33.6895C33.6244 107.214 33.5918 107.247 33.5918 107.312V110.425C33.5919 110.49 33.6245 110.522 33.6895 110.522H37.7812C37.8463 110.523 37.8984 110.549 37.9375 110.601C37.9896 110.64 38.0155 110.692 38.0156 110.757V112.656C38.0156 112.721 37.9895 112.78 37.9375 112.832C37.8984 112.871 37.8463 112.891 37.7812 112.891H31.0664C31.0013 112.891 30.9427 112.871 30.8906 112.832C30.8516 112.78 30.8321 112.721 30.832 112.656V99.4238C30.832 99.3586 30.8515 99.3057 30.8906 99.2666C30.9427 99.2147 31.0014 99.1886 31.0664 99.1885H37.7812ZM41.7441 99.1885C41.8092 99.1885 41.8613 99.2147 41.9004 99.2666C41.9526 99.3057 41.9795 99.3586 41.9795 99.4238V110.425C41.9796 110.49 42.012 110.522 42.0771 110.522H46.1875C46.2526 110.522 46.3046 110.549 46.3438 110.601C46.3958 110.64 46.4227 110.692 46.4229 110.757V112.656C46.4228 112.721 46.3959 112.78 46.3438 112.832C46.3046 112.871 46.2527 112.891 46.1875 112.891H39.4541C39.389 112.891 39.3305 112.871 39.2783 112.832C39.2392 112.78 39.2188 112.721 39.2188 112.656V99.4238C39.2188 99.3586 39.2392 99.3057 39.2783 99.2666C39.3304 99.2147 39.3891 99.1885 39.4541 99.1885H41.7441ZM49.8828 99.1885C49.9478 99.1885 50 99.2147 50.0391 99.2666C50.0913 99.3057 50.1172 99.3586 50.1172 99.4238V104.356C50.1172 104.409 50.1311 104.441 50.1572 104.454C50.1961 104.454 50.2224 104.428 50.2354 104.376L52.7598 99.3652C52.825 99.2478 52.9168 99.1885 53.0342 99.1885H55.4619C55.5528 99.1886 55.6116 99.2147 55.6377 99.2666C55.6768 99.3057 55.6768 99.3715 55.6377 99.4629L52.7402 105.101C52.7273 105.153 52.7207 105.192 52.7207 105.218L55.7939 112.617C55.8069 112.643 55.8135 112.682 55.8135 112.734C55.8134 112.839 55.7485 112.891 55.6182 112.891H53.1709C53.0276 112.891 52.9366 112.832 52.8975 112.715L50.8613 107.586C50.8483 107.547 50.8287 107.534 50.8027 107.547C50.7767 107.547 50.7506 107.56 50.7246 107.586L50.1572 108.604C50.1312 108.657 50.1172 108.696 50.1172 108.722V112.656C50.1171 112.721 50.0912 112.78 50.0391 112.832C49.9999 112.871 49.948 112.891 49.8828 112.891H47.5928C47.5275 112.891 47.4682 112.871 47.416 112.832C47.377 112.78 47.3575 112.721 47.3574 112.656V99.4238C47.3574 99.3586 47.3769 99.3057 47.416 99.2666C47.4682 99.2144 47.5276 99.1885 47.5928 99.1885H49.8828ZM62.1172 99.1885C62.2607 99.1885 62.346 99.2607 62.3721 99.4043L65.2295 112.637L65.249 112.715C65.249 112.832 65.1775 112.891 65.0342 112.891H62.6846C62.5284 112.89 62.4438 112.819 62.4307 112.676L62.1172 110.797C62.1172 110.732 62.0783 110.698 62 110.698H59.5137C59.4356 110.698 59.3965 110.732 59.3965 110.797L59.083 112.676C59.0699 112.819 58.9855 112.891 58.8291 112.891H56.5391C56.3695 112.891 56.3038 112.806 56.3428 112.637L59.2207 99.4043C59.2468 99.2608 59.3312 99.1886 59.4746 99.1885H62.1172ZM70.3672 99.1885C71.0848 99.1885 71.7241 99.3655 72.2852 99.7178C72.8462 100.057 73.2771 100.54 73.5771 101.166C73.8903 101.792 74.0469 102.51 74.0469 103.319C74.0468 104.089 73.8967 104.767 73.5967 105.354C73.3096 105.942 72.9048 106.398 72.3828 106.725C72.3568 106.738 72.3373 106.757 72.3242 106.783C72.3112 106.796 72.3112 106.817 72.3242 106.843L74.125 112.617L74.1445 112.695C74.1445 112.826 74.0729 112.891 73.9297 112.891H71.5801C71.4368 112.891 71.3458 112.826 71.3066 112.695L69.7988 107.293C69.7727 107.241 69.7403 107.214 69.7012 107.214H69.0361C68.9709 107.214 68.9375 107.247 68.9375 107.312V112.656C68.9374 112.721 68.9115 112.78 68.8594 112.832C68.8203 112.871 68.7683 112.891 68.7031 112.891H66.4131C66.3478 112.891 66.2885 112.871 66.2363 112.832C66.1973 112.78 66.1778 112.721 66.1777 112.656V99.4238C66.1777 99.3586 66.1972 99.3057 66.2363 99.2666C66.2885 99.2145 66.3479 99.1885 66.4131 99.1885H70.3672ZM82.79 99.1885C82.8551 99.1885 82.9072 99.2147 82.9463 99.2666C82.9985 99.3057 83.0254 99.3586 83.0254 99.4238V101.322C83.0254 101.388 82.9985 101.447 82.9463 101.499C82.9072 101.538 82.855 101.558 82.79 101.558H80.3438C80.2785 101.558 80.2451 101.59 80.2451 101.655V112.656C80.245 112.721 80.2191 112.78 80.167 112.832C80.1279 112.871 80.0759 112.891 80.0107 112.891H77.7207C77.6555 112.891 77.5961 112.871 77.5439 112.832C77.5049 112.78 77.4854 112.721 77.4854 112.656V101.655C77.4854 101.59 77.4529 101.558 77.3877 101.558H75.0391C74.9739 101.558 74.9145 101.538 74.8623 101.499C74.8232 101.447 74.8037 101.388 74.8037 101.322V99.4238C74.8037 99.3586 74.8232 99.3057 74.8623 99.2666C74.9145 99.2145 74.9739 99.1885 75.0391 99.1885H82.79ZM91.1045 99.1885C91.1695 99.1885 91.2216 99.2148 91.2607 99.2666C91.3129 99.3057 91.3398 99.3586 91.3398 99.4238V101.322C91.3398 101.388 91.3129 101.447 91.2607 101.499C91.2216 101.538 91.1695 101.558 91.1045 101.558H87.0137C86.9484 101.558 86.916 101.59 86.916 101.655V104.748C86.9161 104.813 86.9485 104.846 87.0137 104.846H89.3623C89.4276 104.846 89.4804 104.872 89.5195 104.924C89.5716 104.963 89.5977 105.016 89.5977 105.081V106.979C89.5976 107.045 89.5715 107.103 89.5195 107.155C89.4804 107.194 89.4276 107.214 89.3623 107.214H87.0137C86.9484 107.214 86.916 107.247 86.916 107.312V110.425C86.9161 110.49 86.9485 110.522 87.0137 110.522H91.1045C91.1696 110.522 91.2216 110.549 91.2607 110.601C91.3128 110.64 91.3397 110.692 91.3398 110.757V112.656C91.3398 112.721 91.3129 112.78 91.2607 112.832C91.2216 112.871 91.1696 112.891 91.1045 112.891H84.3906C84.3255 112.891 84.267 112.871 84.2148 112.832C84.1757 112.78 84.1553 112.721 84.1553 112.656V99.4238C84.1553 99.3586 84.1757 99.3057 84.2148 99.2666C84.2669 99.2147 84.3256 99.1885 84.3906 99.1885H91.1045ZM98.0361 99.1885C98.1797 99.1885 98.2649 99.2607 98.291 99.4043L101.148 112.637L101.168 112.715C101.168 112.832 101.097 112.891 100.953 112.891H98.6045C98.448 112.891 98.3627 112.819 98.3496 112.676L98.0361 110.797C98.0361 110.732 97.9972 110.698 97.9189 110.698H95.4326C95.3546 110.698 95.3154 110.732 95.3154 110.797L95.002 112.676C94.9888 112.819 94.9044 112.891 94.748 112.891H92.458C92.2885 112.891 92.2227 112.806 92.2617 112.637L95.1396 99.4043C95.1657 99.2608 95.2502 99.1886 95.3936 99.1885H98.0361ZM60.7275 103.064C60.7015 103.064 60.682 103.084 60.6689 103.123L59.7881 108.467C59.7881 108.532 59.8141 108.564 59.8662 108.564H61.6279C61.6932 108.564 61.7191 108.532 61.7061 108.467L60.7861 103.123C60.7731 103.084 60.7536 103.064 60.7275 103.064ZM96.6465 103.064C96.6205 103.065 96.6009 103.084 96.5879 103.123L95.707 108.467C95.707 108.532 95.7331 108.564 95.7852 108.564H97.5469C97.6121 108.564 97.638 108.532 97.625 108.467L96.7051 103.123C96.692 103.084 96.6725 103.064 96.6465 103.064ZM69.0361 101.558C68.9709 101.558 68.9375 101.59 68.9375 101.655V105.002C68.9375 105.067 68.9709 105.101 69.0361 105.101H69.917C70.3213 105.1 70.6477 104.944 70.8955 104.631C71.1564 104.305 71.2871 103.874 71.2871 103.339C71.2871 102.791 71.1564 102.36 70.8955 102.047C70.6476 101.721 70.3213 101.558 69.917 101.558H69.0361ZM46.6357 74.6367C48.3412 74.6367 49.7195 75.1524 50.7705 76.1836C51.8214 77.2147 52.3466 78.5828 52.3467 80.2881V90.2832C52.3466 91.9884 51.8214 93.3566 50.7705 94.3877C49.7195 95.4189 48.3412 95.9346 46.6357 95.9346C44.9304 95.9346 43.552 95.4189 42.501 94.3877C41.4699 93.3566 40.9542 91.9884 40.9541 90.2832V80.2881C40.9541 78.5829 41.47 77.2147 42.501 76.1836C43.552 75.1524 44.9304 74.6367 46.6357 74.6367ZM59.6582 74.6367C61.304 74.6368 62.6323 75.1525 63.6436 76.1836C64.6549 77.1949 65.1611 78.543 65.1611 80.2285V80.9424C65.1611 81.0414 65.1212 81.1307 65.042 81.21C64.9825 81.2695 64.9029 81.2998 64.8037 81.2998H62.127C62.0278 81.2998 61.9387 81.2695 61.8594 81.21C61.8 81.1307 61.7695 81.0415 61.7695 80.9424V80.1689C61.7695 79.3957 61.5714 78.7812 61.1748 78.3252C60.7981 77.8493 60.2927 77.6114 59.6582 77.6113C59.0633 77.6113 58.577 77.8294 58.2002 78.2656C57.8235 78.682 57.6357 79.2671 57.6357 80.0205C57.6357 80.7344 57.8339 81.3392 58.2305 81.835C58.6469 82.3307 59.4499 83.0152 60.6396 83.8877C61.8492 84.78 62.7613 85.5138 63.376 86.0889C63.9906 86.644 64.4666 87.2585 64.8037 87.9326C65.1408 88.6067 65.3095 89.41 65.3096 90.3418C65.3096 92.0272 64.8041 93.3859 63.793 94.417C62.7816 95.4283 61.4526 95.9346 59.8066 95.9346C58.1609 95.9346 56.8326 95.4386 55.8213 94.4473C54.81 93.4558 54.3038 92.1569 54.3037 90.5508V89.7773C54.3037 89.6783 54.3332 89.5985 54.3926 89.5391C54.4719 89.4597 54.562 89.4199 54.6611 89.4199H57.3672C57.4663 89.4199 57.546 89.4598 57.6055 89.5391C57.6848 89.5986 57.7246 89.6782 57.7246 89.7773V90.3721C57.7246 91.1454 57.9133 91.7702 58.29 92.2461C58.6866 92.7218 59.192 92.9599 59.8066 92.96C60.4214 92.96 60.9276 92.7419 61.3242 92.3057C61.7208 91.8496 61.9189 91.2542 61.9189 90.5205C61.9189 90.0052 61.8097 89.5592 61.5918 89.1826C61.3737 88.8058 61.0656 88.4484 60.6689 88.1113C60.2723 87.7742 59.638 87.2878 58.7656 86.6533C57.7743 85.9395 56.9711 85.3052 56.3564 84.75C55.7615 84.1947 55.2553 83.5302 54.8389 82.7568C54.4424 81.9637 54.2441 81.0515 54.2441 80.0205C54.2441 78.3746 54.7399 77.0654 55.7314 76.0938C56.7229 75.1221 58.0322 74.6367 59.6582 74.6367ZM30.9912 74.875C31.0904 74.875 31.17 74.9148 31.2295 74.9941C31.3086 75.0536 31.3486 75.1334 31.3486 75.2324V83.4414C31.3486 83.5206 31.3677 83.5709 31.4072 83.5908C31.4469 83.5908 31.4867 83.5605 31.5264 83.501L35.9883 75.1426C36.0874 74.9641 36.2363 74.875 36.4346 74.875H39.3799C39.5185 74.8751 39.6078 74.9149 39.6475 74.9941C39.687 75.0734 39.6765 75.1723 39.6172 75.291L35.1553 83.6504C35.1356 83.7293 35.126 83.7886 35.126 83.8281L39.9443 95.2803C39.9642 95.3199 39.9746 95.3797 39.9746 95.459C39.9746 95.6176 39.875 95.6973 39.6768 95.6973H36.7324C36.5143 95.6973 36.3749 95.6072 36.3154 95.4287L32.8057 86.833C32.7859 86.7736 32.7564 86.7537 32.7168 86.7734C32.6771 86.7734 32.6373 86.7933 32.5977 86.833L31.4072 88.8252C31.3676 88.9044 31.3487 88.9642 31.3486 89.0039V95.3398C31.3486 95.4389 31.3086 95.5282 31.2295 95.6074C31.17 95.6669 31.0904 95.6973 30.9912 95.6973H28.2549C28.1558 95.6973 28.0666 95.6669 27.9873 95.6074C27.9278 95.5281 27.8975 95.439 27.8975 95.3398V75.2324C27.8975 75.1333 27.9278 75.0536 27.9873 74.9941C28.0666 74.9149 28.1558 74.875 28.2549 74.875H30.9912ZM77.916 74.875C78.0152 74.875 78.0948 74.9148 78.1543 74.9941C78.2335 75.0536 78.2734 75.1333 78.2734 75.2324V77.4922C78.2734 77.5913 78.2336 77.6814 78.1543 77.7607C78.0948 77.8201 78.0151 77.8496 77.916 77.8496H74.1387C74.0396 77.8496 73.9903 77.899 73.9902 77.998V95.3398C73.9902 95.4389 73.9502 95.5282 73.8711 95.6074C73.8116 95.6669 73.732 95.6973 73.6328 95.6973H70.8965C70.7974 95.6973 70.7082 95.6668 70.6289 95.6074C70.5694 95.5281 70.5391 95.439 70.5391 95.3398V77.998C70.539 77.8991 70.4896 77.8496 70.3906 77.8496H66.8213C66.7223 77.8496 66.6329 77.82 66.5537 77.7607C66.4942 77.6814 66.4639 77.5913 66.4639 77.4922V75.2324C66.4639 75.1333 66.4942 75.0536 66.5537 74.9941C66.633 74.9149 66.7222 74.875 66.8213 74.875H77.916ZM85.7178 74.875C85.9359 74.875 86.0648 74.9841 86.1045 75.2021L90.5068 95.3105V95.4287C90.5068 95.6072 90.3978 95.6973 90.1797 95.6973H87.4131C87.1756 95.6971 87.0463 95.5878 87.0264 95.3701L86.4619 92.2461C86.4618 92.1471 86.4021 92.0977 86.2832 92.0977H81.9404C81.8216 92.0977 81.7618 92.1471 81.7617 92.2461L81.1963 95.3701C81.1763 95.5879 81.0474 95.6973 80.8096 95.6973H78.1035C77.826 95.6973 77.717 95.5682 77.7764 95.3105L82.1787 75.2021C82.2184 74.9841 82.3473 74.875 82.5654 74.875H85.7178ZM95.6543 74.875C95.8526 74.875 95.9815 74.9745 96.041 75.1729L100.503 87.6953C100.523 87.7546 100.552 87.7839 100.592 87.7842C100.651 87.7644 100.681 87.7253 100.682 87.666V75.2324C100.682 75.1334 100.711 75.0536 100.771 74.9941C100.85 74.9149 100.939 74.8751 101.038 74.875H103.745C103.844 74.875 103.924 74.9148 103.983 74.9941C104.063 75.0536 104.103 75.1333 104.103 75.2324V95.3398C104.103 95.4389 104.063 95.5281 103.983 95.6074C103.924 95.6669 103.844 95.6973 103.745 95.6973H100.622C100.424 95.6973 100.295 95.5977 100.235 95.3994L95.8037 82.7871C95.7839 82.7278 95.7439 82.7079 95.6846 82.7275C95.6449 82.7275 95.625 82.7579 95.625 82.8174L95.6543 95.3398C95.6543 95.439 95.6145 95.5281 95.5352 95.6074C95.4757 95.6668 95.3968 95.6972 95.2979 95.6973H92.5908C92.4917 95.6973 92.4026 95.6669 92.3232 95.6074C92.2638 95.5281 92.2334 95.439 92.2334 95.3398V75.2324C92.2334 75.1333 92.2637 75.0536 92.3232 74.9941C92.4026 74.9148 92.4917 74.875 92.5908 74.875H95.6543ZM46.6357 77.6113C45.9615 77.6113 45.4164 77.8493 45 78.3252C44.6034 78.7813 44.4053 79.3861 44.4053 80.1396V90.4316C44.4053 91.1851 44.6035 91.7995 45 92.2754C45.4164 92.7315 45.9615 92.9599 46.6357 92.96C47.31 92.96 47.855 92.7315 48.2715 92.2754C48.6879 91.7995 48.8965 91.1851 48.8965 90.4316V80.1396C48.8965 79.3861 48.6879 78.7813 48.2715 78.3252C47.8551 77.8493 47.3099 77.6113 46.6357 77.6113ZM84.082 79.7529C84.0424 79.7529 84.013 79.7833 83.9932 79.8428L82.2969 89.2422C82.2771 89.3412 82.3274 89.3906 82.4463 89.3906H85.748C85.8668 89.3906 85.9163 89.3412 85.8965 89.2422L84.1709 79.8428C84.1511 79.7833 84.1217 79.7529 84.082 79.7529Z" fill="#18223A"/>
</svg>
