<svg width="40" height="40" viewBox="0 0 40 40" fill="none" xmlns="http://www.w3.org/2000/svg">
<g clip-path="url(#clip0_570_4191)">
<g clip-path="url(#clip1_570_4191)">
<mask id="mask0_570_4191" style="mask-type:luminance" maskUnits="userSpaceOnUse" x="0" y="0" width="40" height="40">
<path d="M40 0H0V40H40V0Z" fill="white"/>
</mask>
<g mask="url(#mask0_570_4191)">
<path d="M19.9997 36.6668C29.2043 36.6668 36.6663 29.2048 36.6663 20.0002C36.6663 10.7954 29.2043 3.3335 19.9997 3.3335C10.7949 3.3335 3.33301 10.7954 3.33301 20.0002C3.33301 29.2048 10.7949 36.6668 19.9997 36.6668Z" stroke="#71BAE8" stroke-width="1.5" stroke-linecap="round" stroke-linejoin="round"/>
<path opacity="0.4" d="M20.55 29.0847C20.25 29.1847 19.7333 29.1847 19.4333 29.0847C16.8333 28.2013 11 24.4847 11 18.1847C11 15.4013 13.2333 13.1514 16 13.1514C17.6333 13.1514 19.0833 13.9347 20 15.168C20.9 13.9514 22.3667 13.1514 24 13.1514C26.7667 13.1514 29 15.4013 29 18.1847C29 24.4847 23.1667 28.2013 20.55 29.0847Z" stroke="#71BAE8" stroke-width="1.5" stroke-linecap="round" stroke-linejoin="round"/>
</g>
</g>
</g>
<defs>
<clipPath id="clip0_570_4191">
<rect width="40" height="40" fill="white"/>
</clipPath>
<clipPath id="clip1_570_4191">
<rect width="40" height="40" fill="white"/>
</clipPath>
</defs>
</svg>
