<svg width="416" height="416" viewBox="0 0 416 416" fill="none" xmlns="http://www.w3.org/2000/svg">
<g clip-path="url(#clip0_162_2727)">
<path d="M211.5 409.5C53.5 409.5 9 280.833 6.5 216.5V211H410.5C410 277.167 349.5 409.5 211.5 409.5Z" fill="#83C48F"/>
<path d="M205 11C363 11 407.5 139.667 410 204L410 209.5L6 209.5C6.50001 143.333 67 11 205 11Z" fill="#D6ECDA"/>
<path d="M192.5 310.5L207.5 303L212 304.5L232 313.5H252V331.5H161.5V315.5L192.5 310.5Z" fill="#2F6138"/>
<path d="M284.5 126H131C137.167 150.5 161.6 199.5 210 199.5C258.4 199.5 279.833 150.5 284.5 126Z" fill="#2F6138"/>
<path d="M213.5 81L220 69.5L203.5 65L183 79.5L180.5 98.5L192 105.5L208.5 98.5L213.5 81Z" fill="#83C48F"/>
<path d="M401 208C401 101.409 314.591 15 208 15C101.409 15 15 101.409 15 208C15 314.591 101.409 401 208 401V416C93.1248 416 0 322.875 0 208C0 93.1248 93.1248 0 208 0C322.875 0 416 93.1248 416 208C416 322.875 322.875 416 208 416V401C314.591 401 401 314.591 401 208Z" fill="#18223A"/>
<path fill-rule="evenodd" clip-rule="evenodd" d="M184.337 69.7732C191.719 61.2375 203.886 55.0538 222.311 57.5662C227.958 58.3363 233.067 60.3192 237.626 63.1013C256.768 74.7832 267.434 89.1 279.5 116H292C292 124.846 290.638 133.373 288.118 141.381C290.481 144.23 292.572 147.552 293.901 151.132C295.781 156.194 296.298 162.304 293.097 168.019C289.948 173.639 283.901 177.616 275.425 180.052C270.928 181.345 265.554 182.265 259.191 182.754C246.498 192.523 230.938 198.711 214 199.819V204.999H409.5V216.999H214V234.065C215.499 234.435 216.976 234.822 218.407 235.233C223.597 236.725 228.927 238.724 233.034 241.885C237.406 245.25 240.5 250.048 240.5 256.5C240.5 260.983 239.337 264.989 236.678 268.153C234.068 271.258 230.568 272.891 227.148 273.755C223.188 274.755 218.577 274.886 214 274.701V296.541C214.136 296.754 214.296 296.985 214.482 297.232C215.654 297.181 216.792 297.066 217.884 296.881C223.11 295.992 226.985 293.622 229.271 289.558L239.729 295.441C236.933 300.412 232.956 303.834 228.435 306.028C234.236 307.956 242.031 309.279 252.338 309.001L258.5 308.835V336.999H157V308.835L163.162 309.001C176.016 309.348 184.964 307.206 191.01 304.503C185.351 302.098 180.132 298.892 176.1 295.171C171.094 290.55 166.718 283.934 168.099 276.416C168.904 272.034 170.98 268.507 174.171 265.984C177.219 263.575 180.872 262.407 184.376 261.83C189.775 260.941 196.128 261.289 202 261.768V243.649C201.159 243.466 200.31 243.282 199.453 243.093C194.022 241.891 188.301 240.527 183.325 238.592C171.16 233.861 165.653 224.695 163.562 216.999H9V204.999H162.444C162.81 200.137 164.827 194.871 168.948 189.995C142.783 175.812 125 147.995 125 116H266.295C256.043 94.2484 247.085 83.2285 232.566 74.0857C226.24 73.6407 223.483 74.4281 222.349 75.073C221.665 75.462 221.14 75.9902 220.7 78.2283C220.461 79.445 220.322 80.769 220.113 82.5818C219.917 84.2809 219.666 86.314 219.182 88.4099C218.175 92.7621 216.133 97.5133 211.404 101.566C203.68 108.187 195.182 111.437 187.723 109.811C183.896 108.977 180.585 106.872 178.291 103.664C176.033 100.505 175 96.6228 175 92.5105C175 87.6748 177.327 77.8781 184.337 69.7732ZM206.546 308.815C199.548 314.944 187.376 320.413 169 320.985V324.999H246.5V320.985C228.416 320.422 216.34 315.118 209.291 309.108C208.375 309.035 207.459 308.937 206.546 308.815ZM202 273.812C195.853 273.301 190.529 272.978 186.326 273.67C183.948 274.061 182.488 274.706 181.612 275.398C180.88 275.977 180.221 276.841 179.901 278.584C179.64 280.006 180.318 282.735 184.238 286.353C187.947 289.776 193.543 292.956 199.815 295.001C200.542 295.238 201.271 295.456 202 295.657V273.812ZM214 262.684C218.121 262.878 221.554 262.791 224.21 262.12C226.11 261.64 227.022 260.991 227.492 260.432C227.912 259.932 228.5 258.891 228.5 256.5C228.5 254.452 227.719 252.937 225.716 251.395C223.448 249.65 219.902 248.149 215.092 246.766C214.731 246.663 214.367 246.56 214 246.46V262.684ZM176.268 216.999C178.078 220.9 181.512 225.011 187.675 227.408C191.687 228.968 196.575 230.164 202 231.365V216.999H176.268ZM180.621 195.202C176.556 198.736 174.971 202.298 174.527 204.999H202V199.748C194.558 199.171 187.389 197.613 180.621 195.202ZM235.076 182.858C218.141 182.541 205.713 184.304 196.705 187.022C200.543 187.664 204.483 188 208.5 188C217.886 188 226.856 186.175 235.076 182.858ZM137.988 128C141.981 151.982 157.74 171.909 179.045 181.622C191.091 174.436 210.425 169.828 240.236 171.005C245.626 171.217 250.403 171.205 254.628 171.011C267.264 160.258 276.153 145.168 279.012 128H137.988ZM282.505 154.936C280.124 159.507 277.338 163.831 274.192 167.857C279.486 166.006 281.717 163.782 282.628 162.155C283.597 160.424 283.725 158.199 282.651 155.308C282.605 155.184 282.555 155.061 282.505 154.936ZM211.581 69.0906C202.56 69.7235 196.963 73.5194 193.413 77.6238C188.424 83.3931 187 90.3457 187 92.5105C187 94.6475 187.53 95.9533 188.053 96.6853C188.54 97.3674 189.23 97.8572 190.277 98.0857C192.568 98.585 197.32 97.8348 203.596 92.4558C205.867 90.5088 206.887 88.3118 207.49 85.7058C207.81 84.3231 208.001 82.8742 208.193 81.2058C208.373 79.6511 208.57 77.7206 208.925 75.9148C209.352 73.7408 210.088 71.3106 211.581 69.0906Z" fill="#18223A"/>
</g>
<defs>
<clipPath id="clip0_162_2727">
<rect width="416" height="416" fill="white"/>
</clipPath>
</defs>
</svg>
