<svg width="416" height="416" viewBox="0 0 416 416" fill="none" xmlns="http://www.w3.org/2000/svg">
<g clip-path="url(#clip0_162_2724)">
<path d="M408.5 212.5H6C16.6667 284.167 74 424 218 410C362 396 405 272.5 408.5 212.5Z" fill="#7E8BAE"/>
<path d="M7.99997 213L410 213C399.347 138.617 342.084 -6.51592 198.263 8.01466C54.4422 22.5453 11.4956 150.726 7.99997 213Z" fill="#E9EFFF"/>
<path d="M321 208C321 270.408 270.408 321 208 321C145.592 321 95 270.408 95 208C95 145.592 145.592 95 208 95C270.408 95 321 145.592 321 208Z" fill="#677187"/>
<path d="M186 105.5L181 97.5L150 107.5L112 139L97.5 179.5L113 185.5L114 209L125.5 224L144 223.5C143 229.833 141 242.8 141 244V271.5C141 272.3 145.667 281.5 148 286C157.833 279 177.8 264.8 179 264C180.2 263.2 180.167 250.333 180 244L200 222L185 204.5L165 182.5L134.5 178.5L129.5 168.5C134.5 161 144.7 145.9 145.5 145.5C146.3 145.1 156.5 146.667 161.5 147.5L204 131.5L207 113.5L186 105.5Z" fill="#A5AAB6"/>
<path d="M302 159.5L314.5 156L323.5 182.5V222L311.5 261.5L281 299V254L265 231.5L270.5 211.5L259.5 201H229L215 180.5L218 163L227 151L246 141C253.5 142.333 268.9 145.2 270.5 146C272.1 146.8 292.167 155.333 302 159.5Z" fill="#A5AAB6"/>
<path d="M401 208C401 101.409 314.591 15 208 15C101.409 15 15 101.409 15 208C15 314.591 101.409 401 208 401V416C93.1248 416 0 322.875 0 208C0 93.1248 93.1248 0 208 0C322.875 0 416 93.1248 416 208C416 322.875 322.875 416 208 416V401C314.591 401 401 314.591 401 208Z" fill="#18223A"/>
<path d="M208 86C275.379 86 330 140.621 330 208C330 209.003 329.987 210.003 329.963 211H403V223H329.084C321.691 283.302 270.3 330 208 330C145.7 330 94.3095 283.302 86.916 223H15V211H86.0371C86.013 210.003 86 209.003 86 208C86 140.621 140.621 86 208 86ZM208 98C201.388 98 194.913 98.5832 188.622 99.7012C188.9 99.9217 189.206 100.137 189.546 100.342C191.458 101.495 194.089 102.081 198.199 103.237C200.008 103.746 202.102 104.386 204.04 105.301C205.98 106.217 208.169 107.593 209.82 109.806C211.492 112.045 212.311 114.869 212.691 117.339C213.092 119.935 213.108 122.794 212.709 125.559C211.999 130.473 209.456 137.826 202.284 140.044C200.238 140.677 198.009 141.214 195.845 141.729C193.622 142.259 191.401 142.779 189.103 143.415C184.535 144.679 179.923 146.333 175.523 149.034C169.96 152.451 163.536 152.96 158.322 152.546C154.701 152.258 151.306 151.498 148.571 150.641C147.171 151.833 145.507 153.512 143.801 155.586C141.181 158.771 138.858 162.402 137.489 165.672C135.986 169.262 136.204 171.014 136.388 171.434C136.39 171.44 136.398 171.562 136.826 171.771C137.377 172.039 138.59 172.406 140.88 172.406C150.4 172.406 159.068 173.248 166.681 176.779C174.271 180.3 180.206 186.194 185.09 195.076L185.56 195.945L185.658 196.141C185.754 196.338 185.839 196.542 185.913 196.749C186.554 198.552 189.139 203.133 193.241 205.353C197.695 207.762 203.037 212.475 204.474 219.025C205.237 222.509 204.809 226.238 202.843 229.816C200.939 233.28 197.773 236.294 193.541 238.911C188.053 242.305 186.694 246.062 186.121 249.832C185.759 252.211 185.782 253.846 185.521 256.628C185.312 258.857 184.886 262.135 182.933 264.938C181.294 267.291 179.096 268.961 177.162 270.216C175.294 271.428 173.007 272.652 171.293 273.637C167.471 275.831 164.669 277.839 162.992 280.834C159.996 286.186 155.509 290.371 150.004 290.938C143.773 291.581 139.209 287.399 137.436 282.054C136.173 278.246 133.957 269.578 133.142 259.521C132.392 250.272 132.763 239.122 136.759 229.419C134.245 229.991 130.974 230.641 127.938 230.52C125.884 230.437 123.466 230.004 121.209 228.642C118.835 227.208 117.103 225.025 116.11 222.282C114.09 216.699 112.76 216.104 110.668 212.53C108.211 208.332 107.878 203.95 109.071 196.154C109.851 191.065 107.812 188.363 105.747 187.164C104.007 186.154 101.918 185.968 100.071 186.649C98.7127 193.556 98 200.695 98 208C98 268.751 147.249 318 208 318C232.782 318 255.648 309.803 274.039 295.976C274.223 288.019 274.45 270.812 274.022 258.811C273.904 255.472 273.323 253.34 272.661 251.878C272.01 250.441 271.14 249.34 269.977 248.2C269.365 247.601 268.704 247.022 267.907 246.331C267.149 245.674 266.239 244.891 265.349 244.044C263.503 242.289 261.545 240.08 260.004 236.99C258.199 233.371 258.026 229.743 258.382 226.611C258.721 223.625 259.613 220.649 260.228 218.442C261.706 213.139 261.617 211.575 260.65 210.342C260.649 210.34 260.599 210.278 260.467 210.17C260.328 210.056 260.118 209.908 259.817 209.735C259.203 209.382 258.338 209.001 257.19 208.627C254.88 207.875 251.894 207.303 248.526 206.91C241.808 206.127 234.394 206.149 229.662 206.418C228.568 206.48 227.478 206.241 226.51 205.728C222.46 203.578 213.989 197.133 209.708 186.938C207.16 180.871 207.884 173.731 209.165 168.129C210.494 162.314 212.715 156.928 214.412 153.632L214.516 153.438C214.765 152.994 215.071 152.583 215.425 152.216C218.321 149.209 223.255 144.81 228.916 141.116C234.379 137.551 241.48 134 248.475 134C256.157 134 265.212 136.773 273.291 140.1C281.52 143.488 289.432 147.747 295.058 151.309C298.264 153.339 301.194 153.587 303.412 153.224C284.425 120.221 248.808 98 208 98ZM248.475 146C245.104 146 240.469 147.908 235.474 151.167C231.073 154.038 227.136 157.465 224.692 159.904C223.429 162.516 221.834 166.554 220.863 170.803C219.741 175.714 219.715 179.776 220.771 182.292C223.263 188.224 228.053 192.454 230.863 194.348C236.038 194.145 243.194 194.208 249.915 194.991C253.696 195.432 257.548 196.123 260.906 197.217C264.069 198.247 267.732 199.924 270.096 202.939C275.325 209.612 272.984 217.367 271.786 221.664C271.063 224.258 270.511 226.153 270.305 227.967C270.115 229.635 270.294 230.737 270.742 231.635C271.454 233.063 272.383 234.173 273.618 235.348C274.267 235.965 274.946 236.551 275.771 237.266C276.556 237.947 277.47 238.744 278.372 239.627C280.236 241.452 282.148 243.74 283.592 246.927C285.024 250.089 285.852 253.816 286.015 258.384C286.305 266.535 286.302 276.916 286.214 285.344C305.865 265.473 318 238.154 318 208C318 192.416 314.758 177.59 308.914 164.157C303.639 165.959 296.288 166.291 288.638 161.447C283.561 158.232 276.265 154.301 268.722 151.195C261.029 148.028 253.748 146 248.475 146ZM175.925 102.751C141.521 113.222 114.264 140.099 103.268 174.271C106.253 174.422 109.181 175.283 111.771 176.786C118.411 180.64 122.404 188.361 120.933 197.97C119.876 204.873 120.669 205.861 121.024 206.468C121.745 207.7 124.914 211.345 127.395 218.198C127.427 218.287 127.454 218.349 127.474 218.39C127.592 218.43 127.876 218.508 128.418 218.529C130.298 218.604 132.691 218.039 135.948 217.29C137.362 216.965 139.072 216.581 140.648 216.419C141.948 216.285 144.632 216.104 147.06 217.554C148.479 218.402 149.612 219.689 150.255 221.312C150.852 222.818 150.903 224.293 150.793 225.473C150.584 227.712 149.671 230.097 148.536 232.454C144.999 239.8 144.362 249.417 145.103 258.551C145.834 267.573 147.838 275.299 148.825 278.275C148.915 278.547 149.006 278.742 149.081 278.88C149.66 278.601 150.991 277.708 152.521 274.973C155.908 268.923 161.263 265.559 165.317 263.23C167.541 261.954 169.121 261.129 170.629 260.15C172.071 259.215 172.756 258.553 173.086 258.079C173.057 258.12 173.147 258.012 173.263 257.565C173.382 257.102 173.484 256.457 173.573 255.507C173.717 253.978 173.845 250.737 174.257 248.028C175.231 241.623 178.091 234.356 187.229 228.705C190.31 226.8 191.715 225.15 192.326 224.038C192.874 223.04 192.902 222.281 192.752 221.596C192.36 219.808 190.389 217.454 187.53 215.907C180.265 211.976 176.208 204.898 174.786 201.248C170.806 193.865 166.524 189.934 161.632 187.665C156.447 185.26 149.924 184.406 140.88 184.406C134.094 184.406 128 182.197 125.395 176.245C123.148 171.111 124.62 165.338 126.42 161.038C128.354 156.418 131.384 151.792 134.534 147.963C137.625 144.206 141.241 140.718 144.591 138.749L144.901 138.578C146.478 137.773 148.338 137.703 149.979 138.4C151.88 139.209 155.412 140.276 159.272 140.583C163.191 140.894 166.707 140.367 169.244 138.809C174.971 135.292 180.766 133.271 185.902 131.85C188.455 131.143 190.911 130.569 193.065 130.056C195.278 129.529 197.129 129.077 198.739 128.579C198.881 128.535 200.276 127.69 200.832 123.843C201.066 122.226 201.046 120.562 200.831 119.166C200.725 118.476 200.581 117.92 200.436 117.512C200.283 117.085 200.175 116.944 200.204 116.983C200.168 116.935 199.895 116.614 198.917 116.152C197.937 115.69 196.655 115.269 194.948 114.789C192.027 113.967 187.063 112.857 183.35 110.618C179.672 108.401 177.317 105.473 175.925 102.751Z" fill="#18223A"/>
</g>
<defs>
<clipPath id="clip0_162_2724">
<rect width="416" height="416" fill="white"/>
</clipPath>
</defs>
</svg>
