<svg width="42" height="61" viewBox="0 0 42 61" fill="none" xmlns="http://www.w3.org/2000/svg">
<path d="M28.5254 0.0849609C29.1895 0.0849761 29.8262 0.348901 30.2959 0.818359L41.2666 11.7891C41.7361 12.2587 42 12.8955 42 13.5596V58.416C41.9999 59.7961 40.8932 60.915 39.5068 60.915H2.50391C1.12046 60.9149 0.00015755 59.793 0 58.4102V2.58984C0 1.20651 1.12155 0.0849609 2.50488 0.0849609H28.5254ZM2.50488 1.5166C1.91202 1.5166 1.43164 1.99699 1.43164 2.58984V58.4102C1.4318 59.0031 1.91157 59.4833 2.50391 59.4834H39.5068C40.0965 59.4834 40.5682 59.0119 40.5684 58.416V14.0371H28.4395V1.5166H2.50488ZM21 18.9854C21.4856 18.9854 21.8798 19.3786 21.8799 19.8643V38.9873L27.3496 33.4287C27.6902 33.0825 28.2476 33.0783 28.5938 33.4189C28.9395 33.7597 28.944 34.316 28.6035 34.6621L21.627 41.7529C21.6238 41.7561 21.6204 41.7595 21.6172 41.7627C21.6093 41.7705 21.6009 41.7778 21.5928 41.7852C21.5851 41.7921 21.5772 41.799 21.5693 41.8057C21.557 41.8162 21.544 41.8262 21.5312 41.8359C21.5265 41.8395 21.5214 41.8432 21.5166 41.8467C21.4695 41.8809 21.4197 41.9098 21.3682 41.9336C21.363 41.936 21.3578 41.9381 21.3525 41.9404C21.3377 41.9469 21.3227 41.9534 21.3076 41.959C21.2976 41.9627 21.2875 41.9664 21.2773 41.9697C21.2507 41.9785 21.2235 41.986 21.1963 41.9922C21.1893 41.9938 21.1819 41.9956 21.1748 41.9971C21.1597 42.0001 21.1441 42.0027 21.1289 42.0049C21.1199 42.0062 21.1106 42.0077 21.1016 42.0088C21.0879 42.0104 21.0743 42.0118 21.0605 42.0127C21.048 42.0136 21.0351 42.0134 21.0225 42.0137C21.0103 42.014 20.9975 42.0149 20.9854 42.0146C20.9629 42.0143 20.9404 42.0128 20.918 42.0107C20.9078 42.0098 20.8978 42.0081 20.8877 42.0068C20.8711 42.0047 20.8544 42.0031 20.8379 42C20.8301 41.9985 20.8222 41.9968 20.8145 41.9951C20.7971 41.9914 20.7799 41.9872 20.7627 41.9824C20.7532 41.9798 20.7437 41.9766 20.7344 41.9736C20.7119 41.9665 20.6891 41.9592 20.667 41.9502L20.666 41.9492C20.6578 41.9458 20.6497 41.9421 20.6416 41.9385C20.6254 41.9313 20.6093 41.9231 20.5938 41.915C20.5863 41.9111 20.5787 41.9075 20.5713 41.9033C20.5567 41.8951 20.5424 41.8859 20.5283 41.877C20.5196 41.8714 20.5105 41.8663 20.502 41.8604C20.4576 41.8299 20.4165 41.7954 20.3789 41.7578C20.3774 41.7563 20.3755 41.7544 20.374 41.7529L13.3975 34.6631C13.0569 34.317 13.0614 33.7597 13.4072 33.4189C13.7534 33.0782 14.3107 33.0825 14.6514 33.4287L20.1211 38.9873V19.8643C20.1212 19.3787 20.5145 18.9855 21 18.9854ZM30.2285 12.248H39.7012L30.2285 2.77539V12.248Z" fill="#269BC6"/>
</svg>
