<svg fill="none" height="32" viewBox="0 0 32 32" width="32" xmlns="http://www.w3.org/2000/svg"><path d="m31.3137 11.4773c-.5076-1.77667-1.2127-3.15856-2.2561-4.68145-.3667-.53583-.7333-1.04346-1.1845-1.52289-6.9658-7.69906-19.26178-6.82481-25.09953 1.6921-1.32548 1.94592-2.19973 4.14564-2.566352 6.48644-.366623 2.3689-.2538158 4.5686.394823 6.8812.479429 1.7203 1.212669 3.2714 2.199729 4.7661l-.87425 5.1327 5.33012-.8179c1.49469.9025 3.04576 1.6357 4.76606 2.0587 8.1785 2.087 16.5262-2.5381 19.149-10.4628 1.0434-3.1304 1.0998-6.3454.1692-9.5322zm-7.8683 11.4781c-1.9741 1.6639-4.0046 1.0999-6.2326.3102-2.2279-.7896-3.8918-1.8895-5.5557-3.5534-1.4383-1.4665-3.32779-3.8636-3.94823-5.8377 0-.0282-.0282-.0564-.0282-.0846 0 0 0-.0564 0-.0846-.45123-1.5793-.19741-3.215.84605-4.5123.33842-.42303 1.32548-1.35368 1.86128-1.21268.6205.14101 1.4383 1.24088 1.7485 1.77671.3949.70507.7897 1.60747.9871 2.36897.1692.705-.423 1.3819-.8179 1.8613-.2538.282-.6204.5076-.5076.9306.0564.2257.4512.7615.5923.9871 1.128 1.6639 2.5945 2.9612 4.3994 3.8354.2256.1128.9307.4513 1.1563.4795.3102.0282.423-.1128.6204-.3103.4795-.5076.8743-1.0998 1.2973-1.6357.3948-.4512.8461-.1692 1.2973 0 1.0716.4795 2.1151 1.0153 3.1586 1.5793.1692.141.141.2821.1692.5077 0 1.0152-.282 1.9459-1.0717 2.5945z" fill="#f6f4e7"/></svg>